<svg width="21" height="11" viewBox="0 0 21 11" fill="none" xmlns="http://www.w3.org/2000/svg">
<path d="M1.69897 0.273146C1.6035 0.182927 1.49119 0.112398 1.36846 0.0655823C1.24573 0.0187664 1.11499 -0.00341796 0.983684 0.000296604C0.852382 0.00401116 0.723097 0.0335512 0.603211 0.0872297C0.483325 0.140908 0.375186 0.217674 0.284968 0.313146C0.19475 0.408617 0.12422 0.520924 0.0774041 0.643652C0.0305886 0.76638 0.00840452 0.897128 0.0121189 1.02843C0.0158332 1.15973 0.045373 1.28902 0.0990518 1.4089C0.15273 1.52879 0.229497 1.63693 0.324968 1.72715L9.32497 10.2271C9.51064 10.4027 9.75646 10.5005 10.012 10.5005C10.2675 10.5005 10.5133 10.4027 10.699 10.2271L19.7 1.72715C19.7975 1.63752 19.8763 1.52941 19.9317 1.40908C19.9872 1.28875 20.0181 1.15862 20.0228 1.02622C20.0275 0.893826 20.0059 0.761816 19.9591 0.63786C19.9124 0.513903 19.8415 0.400469 19.7505 0.304149C19.6596 0.207829 19.5504 0.13054 19.4293 0.0767739C19.3082 0.0230076 19.1777 -0.00616432 19.0452 -0.00904919C18.9128 -0.0119341 18.7811 0.0115273 18.6578 0.0599711C18.5345 0.108415 18.422 0.180876 18.327 0.273146L10.012 8.12515L1.69897 0.273146Z" fill="black"/>
</svg>
