<svg width="27" height="26" viewBox="0 0 27 26" fill="none" xmlns="http://www.w3.org/2000/svg">
<path d="M8.27732 0.333496H19.0573C23.164 0.333496 26.5007 3.67016 26.5007 7.77683V18.5568C26.5007 20.5309 25.7164 22.4242 24.3206 23.8201C22.9247 25.216 21.0314 26.0002 19.0573 26.0002H8.27732C4.17065 26.0002 0.833984 22.6635 0.833984 18.5568V7.77683C0.833984 5.80274 1.61819 3.90949 3.01409 2.5136C4.40998 1.1177 6.30322 0.333496 8.27732 0.333496ZM8.02065 2.90016C6.79535 2.90016 5.62024 3.38691 4.75382 4.25333C3.8874 5.11975 3.40065 6.29486 3.40065 7.52016V18.8135C3.40065 21.3673 5.46682 23.4335 8.02065 23.4335H19.314C20.5393 23.4335 21.7144 22.9468 22.5808 22.0803C23.4472 21.2139 23.934 20.0388 23.934 18.8135V7.52016C23.934 4.96633 21.8678 2.90016 19.314 2.90016H8.02065ZM20.4048 4.82516C20.8303 4.82516 21.2383 4.99417 21.5391 5.29501C21.84 5.59585 22.009 6.00388 22.009 6.42933C22.009 6.85478 21.84 7.26281 21.5391 7.56365C21.2383 7.86449 20.8303 8.0335 20.4048 8.0335C19.9794 8.0335 19.5713 7.86449 19.2705 7.56365C18.9697 7.26281 18.8007 6.85478 18.8007 6.42933C18.8007 6.00388 18.9697 5.59585 19.2705 5.29501C19.5713 4.99417 19.9794 4.82516 20.4048 4.82516ZM13.6673 6.75016C15.3691 6.75016 17.0012 7.4262 18.2046 8.62956C19.4079 9.83292 20.084 11.465 20.084 13.1668C20.084 14.8686 19.4079 16.5007 18.2046 17.7041C17.0012 18.9075 15.3691 19.5835 13.6673 19.5835C11.9655 19.5835 10.3334 18.9075 9.13005 17.7041C7.92669 16.5007 7.25065 14.8686 7.25065 13.1668C7.25065 11.465 7.92669 9.83292 9.13005 8.62956C10.3334 7.4262 11.9655 6.75016 13.6673 6.75016ZM13.6673 9.31683C12.6462 9.31683 11.667 9.72245 10.945 10.4445C10.2229 11.1665 9.81732 12.1457 9.81732 13.1668C9.81732 14.1879 10.2229 15.1672 10.945 15.8892C11.667 16.6112 12.6462 17.0168 13.6673 17.0168C14.6884 17.0168 15.6677 16.6112 16.3897 15.8892C17.1117 15.1672 17.5173 14.1879 17.5173 13.1668C17.5173 12.1457 17.1117 11.1665 16.3897 10.4445C15.6677 9.72245 14.6884 9.31683 13.6673 9.31683Z" fill="white"/>
</svg>
